<?xml version="1.0" encoding="UTF-8" standalone="no"?>
<svg
   xmlns:dc="http://purl.org/dc/elements/1.1/"
   xmlns:cc="http://creativecommons.org/ns#"
   xmlns:rdf="http://www.w3.org/1999/02/22-rdf-syntax-ns#"
   xmlns:svg="http://www.w3.org/2000/svg"
   xmlns="http://www.w3.org/2000/svg"
   viewBox="0 0 625 250"
   height="250"
   width="625"
   xml:space="preserve"
   version="1.1"
   id="svg2"><metadata
     id="metadata8"><rdf:RDF><cc:Work
         rdf:about=""><dc:format>image/svg+xml</dc:format><dc:type
           rdf:resource="http://purl.org/dc/dcmitype/StillImage" /></cc:Work></rdf:RDF></metadata><defs
     id="defs6"><clipPath
       id="clipPath18"
       clipPathUnits="userSpaceOnUse"><path
         id="path20"
         d="m 5000,576.68 -5000,0 0,1423.32 5000,0 0,-1423.32 z" /></clipPath><linearGradient
       id="linearGradient22"
       spreadMethod="pad"
       gradientTransform="matrix(1e-7,-1813.22,-1813.22,-1e-7,2500,2297.12)"
       gradientUnits="userSpaceOnUse"
       y2="0"
       x2="1"
       y1="0"
       x1="0"><stop
         id="stop24"
         offset="0"
         style="stop-opacity:1;stop-color:#1ec4d4" /><stop
         id="stop26"
         offset="1"
         style="stop-opacity:1;stop-color:#ffffff" /></linearGradient><clipPath
       id="clipPath46"
       clipPathUnits="userSpaceOnUse"><path
         id="path48"
         d="m 0,383.922 5000,15.969 0,671.209 c -104.12,118.11 -202.55,20.66 -298.89,-105.08 -175.38,-228.899 -267.99,412.53 -470.82,429.76 -283.61,24.1 -527.26,-919.698 -691.48,-497.241 C 3340,1410 3156.19,1249.66 3082.8,1111.18 2824.18,623.238 2912.97,1176.72 2702.29,1184.37 2570.37,1189.16 2422.66,793.5 2326.79,964.691 2204.45,1183.16 2090.45,1075.47 1979.23,930.32 1803.85,701.41 1711.24,1342.84 1508.41,1360.07 1224.8,1384.17 1015.14,455.211 816.934,862.828 588.969,1331.64 464.781,1192.84 360.918,1075.47 260.406,961.891 125.379,690.199 0,965.781 L 0,383.922 Z" /></clipPath><linearGradient
       id="linearGradient50"
       spreadMethod="pad"
       gradientTransform="matrix(-3.19224,-1525.89,-1525.89,3.19224,2502.35,1804.01)"
       gradientUnits="userSpaceOnUse"
       y2="0"
       x2="1"
       y1="0"
       x1="0"><stop
         id="stop52"
         offset="0"
         style="stop-opacity:1;stop-color:#1ec4d4" /><stop
         id="stop54"
         offset="1"
         style="stop-opacity:1;stop-color:#ffffff" /></linearGradient></defs><g
     transform="matrix(1.25,0,0,-1.25,0,250)"
     id="g10"><g
       transform="scale(0.1,0.1)"
       id="g12"><g
         id="g14"><g
           clip-path="url(#clipPath18)"
           id="g16"><path
             id="path28"
             style="fill:url(#linearGradient22);fill-opacity:1;fill-rule:nonzero;stroke:none"
             d="m 0,576.68 5000,0 L 5000,2000 0,2000 0,576.68 Z" /></g></g><path
         id="path30"
         style="fill:#e8feff;fill-opacity:1;fill-rule:nonzero;stroke:none"
         d="m 875.402,1206.9 c 60.196,108.19 -80.472,108.19 -96.047,59.25 -4.687,28.1 -49.246,29.1 -41.042,-18.27 -44.754,24.05 -49.235,-14.54 -49.235,-14.54 0,0 -86.023,35.68 -68.414,-27.05 0,0 162.496,-2.2 254.738,0.61" /><path
         id="path32"
         style="fill:#e8feff;fill-opacity:1;fill-rule:nonzero;stroke:none"
         d="m 3688.24,1283.14 c 38.75,28.14 -9.23,40.79 -41.06,16.6 39.76,79.81 -81.66,98.27 -79.32,24.65 -13.87,23.79 -51.36,37.88 -42.46,-1.44 -23.24,21.52 -47.92,-7.17 -27.26,-21.23 -55.79,31.27 -66.14,-15.04 -51.77,-24.59 0,0 170.84,3.84 241.87,6.01" /><path
         id="path34"
         style="fill:#e8feff;fill-opacity:1;fill-rule:nonzero;stroke:none"
         d="m 2399.31,1308.02 c -5.95,51.59 -62.2,25.74 -62.2,25.74 0,0 32.31,109.66 -59.6,117.35 -91.91,7.69 -101.36,-44.12 -101.36,-44.12 0,0 -17.64,44.6 -58.89,27.2 -40.1,-16.92 -10.88,-72.32 -10.88,-72.32 0,0 -71.42,45.19 -67.25,-16.35 -50.09,26.27 -127.39,-25.76 -91.73,-37.5 l 451.91,0" /><path
         id="path36"
         style="fill:#e8feff;fill-opacity:1;fill-rule:nonzero;stroke:none"
         d="m 1371.97,1506.07 c -9.48,82.12 -99.02,40.97 -99.02,40.97 0,0 51.44,174.55 -94.86,186.8 -146.31,12.25 -161.35,-70.23 -161.35,-70.23 0,0 -28.084,71 -93.736,43.3 -63.828,-26.95 -17.328,-115.12 -17.328,-115.12 0,0 -113.676,71.93 -107.039,-26.02 -79.742,41.81 -202.785,-41.02 -146.024,-59.7 l 719.357,0" /><path
         id="path38"
         style="fill:#e8feff;fill-opacity:1;fill-rule:nonzero;stroke:none"
         d="m 3499.56,1508.29 c 42.7,84.44 -101.98,40.21 -101.98,40.21 0,0 52.98,171.29 -97.71,183.3 -150.69,12.02 -94.55,-82.73 -94.55,-82.73 0,0 -25.95,83.13 -93.57,55.95 -65.74,-26.44 -12.53,-88.75 -12.53,-88.75 0,0 -84.98,77.8 -78.14,-18.33 -24.38,50.17 -83.05,38.04 -112.86,-25.08 -60.77,47.71 -163.99,-7.72 -149.57,-64.57 l 740.91,0" /><path
         id="path40"
         style="fill:#e8feff;fill-opacity:1;fill-rule:nonzero;stroke:none"
         d="m 4626.44,1618.16 c 131.29,203.58 -136.66,221.65 -151.53,85.44 -17.27,76.21 -133.7,47.78 -118.97,-37.26 -80.35,43.16 -78.52,-12.34 -78.52,-12.34 0,0 -122.78,75.47 -91.16,-37.15 0,0 274.58,-3.75 440.18,1.31" /><g
         id="g42"><g
           clip-path="url(#clipPath46)"
           id="g44"><path
             id="path56"
             style="fill:url(#linearGradient50);fill-opacity:1;fill-rule:nonzero;stroke:none"
             d="m 0,383.922 5000,15.969 0,671.209 c -104.12,118.11 -202.55,20.66 -298.89,-105.08 -175.38,-228.899 -267.99,412.53 -470.82,429.76 -283.61,24.1 -527.26,-919.698 -691.48,-497.241 C 3340,1410 3156.19,1249.66 3082.8,1111.18 2824.18,623.238 2912.97,1176.72 2702.29,1184.37 2570.37,1189.16 2422.66,793.5 2326.79,964.691 2204.45,1183.16 2090.45,1075.47 1979.23,930.32 1803.85,701.41 1711.24,1342.84 1508.41,1360.07 1224.8,1384.17 1015.14,455.211 816.934,862.828 588.969,1331.64 464.781,1192.84 360.918,1075.47 260.406,961.891 125.379,690.199 0,965.781 L 0,383.922" /></g></g><path
         id="path58"
         style="fill:#5c943b;fill-opacity:1;fill-rule:nonzero;stroke:none"
         d="m 5000,648.172 c -7.98,-6.524 -16.42,-16.184 -23.98,-26.051 11.25,24.957 20.08,53.43 20.08,53.43 -22.59,-2.492 -46.09,-19.141 -63.78,-34.949 11.19,17.609 19.24,36.168 19.24,36.168 -13.47,4.902 -59.53,-33.051 -59.53,-33.051 25.71,19.59 7.62,62.09 7.62,62.09 -29.31,-17.59 -48.63,-39.047 -60.27,-60.86 19.25,36.102 17.14,91.801 17.14,91.801 -23.27,-9.789 -61.22,-53.859 -61.22,-53.859 12.26,33.058 -4.87,98.398 -4.87,98.398 -36.98,-30.609 -79.86,-97.66 -79.86,-97.66 -11.34,18.293 -21.08,40.109 -39.3,55.699 l 0,-68.957 c -15.5,-6.789 -30.45,-17.961 -42.64,-28.851 11.21,17.621 19.25,36.179 19.25,36.179 -13.46,4.903 -59.53,-33.058 -59.53,-33.058 25.72,19.597 20.45,56.668 20.45,56.668 -49.23,-3.829 -61.47,-33.618 -73.1,-55.438 19.26,36.109 9.35,87.481 9.35,87.481 -23.27,-9.801 -55.41,-54.372 -55.41,-54.372 12.25,33.051 -20.59,99.11 -20.59,99.11 -46.24,-26.731 -47.35,-110.25 -47.35,-110.25 -11.33,18.301 -9.62,44.539 -40.8,62.621 -18.52,-38.191 -23.92,-77.902 -17.88,-103.18 -10.71,28.5 -32.53,44.969 -32.53,44.969 -17.15,-19.602 -23.47,-80.238 -23.47,-80.238 1.23,24.468 -24.97,65.058 -24.97,65.058 -11.42,0 -27.24,-16.851 -40.41,-34.019 11.26,24.949 32.46,103.359 32.46,103.359 -38.66,-11.441 -58.47,-69.07 -76.16,-84.89 11.19,17.621 19.24,36.179 19.24,36.179 -13.47,4.903 -59.53,-33.058 -59.53,-33.058 25.71,19.597 28.16,57.539 28.16,57.539 -49.24,-3.828 -69.17,-34.489 -80.81,-56.309 19.25,36.109 -3.33,88.207 -3.33,88.207 -43.68,2.711 -66.39,-63.558 -66.39,-63.558 12.24,33.062 -39.27,107.031 -39.27,107.031 -36.97,-30.61 -23.28,-122.27 -23.28,-122.27 -11.34,18.289 -6.06,40.641 -46.7,59.688 -8.51,-21.789 -7.78,-51.188 -4.71,-76.02 -9.14,25.711 -21.49,45.16 -21.49,45.16 -17.14,-19.578 -31.3,-93.019 -31.3,-93.019 1.22,24.469 -24.99,65.058 -24.99,65.058 -11.42,0 -27.24,-16.847 -40.4,-34.027 11.26,24.957 20.08,53.43 20.08,53.43 -22.6,-2.492 -46.09,-19.141 -63.79,-34.949 11.21,17.609 19.24,36.168 19.24,36.168 -13.47,4.902 -59.52,-33.051 -59.52,-33.051 25.71,19.59 20.45,56.672 20.45,56.672 -49.24,-3.832 -61.47,-33.629 -73.1,-55.442 19.25,36.102 9.33,87.473 9.33,87.473 -23.26,-9.793 -55.39,-54.371 -55.39,-54.371 12.24,33.058 -20.59,99.109 -20.59,99.109 -46.24,-26.719 -47.36,-110.238 -47.36,-110.238 -11.33,18.297 -22.93,54.328 -54.11,72.406 -18.52,-38.187 -10.6,-87.699 -4.56,-112.976 -10.72,28.507 -32.54,44.968 -32.54,44.968 -17.14,-19.59 -23.46,-80.23 -23.46,-80.23 1.22,24.469 -24.97,65.058 -24.97,65.058 -11.42,0 -27.25,-16.847 -40.41,-34.027 11.25,24.957 20.08,53.43 20.08,53.43 -22.6,-2.492 -46.09,-19.141 -63.79,-34.949 11.2,17.609 19.24,36.168 19.24,36.168 -13.47,4.902 -59.53,-33.051 -59.53,-33.051 25.72,19.59 28.17,57.531 28.17,57.531 -49.24,-3.82 -69.17,-34.488 -80.81,-56.301 19.25,36.102 17.14,91.801 17.14,91.801 -41.03,-4.191 -77.25,-50.441 -77.25,-50.441 -3.02,31.461 -20.07,68.543 -20.07,68.543 -36.97,-30.614 -35.67,-58.071 -35.67,-58.071 -11.34,18.297 -26.43,37.668 -52.27,42.547 l 11.3,-59.726 c -3.4,6.25 -19.83,31.058 -19.83,31.058 -22.36,-9.422 -32.79,-29.691 -33.62,-31.68 12.24,33.059 -58.23,78.95 -58.23,78.95 -12.89,-23.641 -9.71,-90.09 -9.71,-90.09 -11.33,18.301 -34.35,36.539 -65.53,54.621 -18.52,-38.191 0.81,-69.902 6.86,-95.18 -10.71,28.5 -32.54,44.969 -32.54,44.969 -17.14,-19.602 -23.46,-80.238 -23.46,-80.238 1.23,24.468 -24.98,65.058 -24.98,65.058 -11.41,0 -27.23,-16.851 -40.4,-34.019 11.25,24.949 16.71,70.398 16.71,70.398 -38.66,-11.429 -42.72,-36.109 -60.42,-51.929 11.2,17.621 2.25,44.41 2.25,44.41 -10.64,-0.5 -20.59,-9.539 -28.2,-19.032 5.13,19.024 -0.7,39.454 -0.7,39.454 -49.24,-3.832 -54.64,-38.661 -66.28,-60.481 19.24,36.109 -3.33,88.207 -3.33,88.207 -43.68,2.711 -66.4,-63.558 -66.4,-63.558 12.25,33.062 -39.26,107.031 -39.26,107.031 -36.98,-30.61 -23.29,-122.27 -23.29,-122.27 -11.34,18.289 -6.06,40.641 -46.7,59.688 -8.5,-21.789 -7.78,-51.188 -4.7,-76.02 -9.14,25.711 -21.5,45.16 -21.5,45.16 -17.14,-19.578 -31.3,-93.019 -31.3,-93.019 1.22,24.469 -24.98,65.058 -24.98,65.058 -11.41,0 -27.24,-16.847 -40.41,-34.027 11.26,24.957 20.08,53.43 20.08,53.43 -22.59,-2.492 -46.08,-19.141 -63.78,-34.949 11.2,17.609 19.24,36.168 19.24,36.168 -13.48,4.902 -59.52,-33.051 -59.52,-33.051 25.71,19.59 20.44,56.672 20.44,56.672 -49.24,-3.832 -61.47,-33.629 -73.09,-55.442 19.25,36.102 9.34,87.473 9.34,87.473 -23.27,-9.793 -55.41,-54.371 -55.41,-54.371 12.25,33.058 -20.58,99.109 -20.58,99.109 -46.24,-26.719 -47.36,-110.238 -47.36,-110.238 -11.34,18.297 -10.44,33.988 -41.62,52.066 -18.51,-38.187 -23.09,-67.359 -17.05,-92.636 -10.72,28.507 -32.54,44.968 -32.54,44.968 -17.14,-19.59 -23.47,-80.23 -23.47,-80.23 1.22,24.469 -24.97,65.058 -24.97,65.058 -11.42,0 -27.24,-16.847 -40.41,-34.027 11.26,24.957 20.08,53.43 20.08,53.43 -22.59,-2.492 -46.09,-19.141 -63.78,-34.949 11.2,17.609 19.24,36.168 19.24,36.168 -13.47,4.902 -59.53,-33.051 -59.53,-33.051 25.71,19.59 7.63,62.09 7.63,62.09 -29.31,-17.59 -48.64,-39.047 -60.27,-60.86 19.24,36.102 17.14,91.801 17.14,91.801 -23.27,-9.789 -61.22,-53.859 -61.22,-53.859 12.25,33.058 -4.88,98.398 -4.88,98.398 -36.97,-30.609 -79.85,-97.66 -79.85,-97.66 -11.34,18.293 -21.08,40.109 -39.31,55.699 l 0,-68.957 c -15.49,-6.789 -30.44,-17.961 -42.63,-28.851 11.2,17.621 19.24,36.179 19.24,36.179 -13.46,4.903 -59.53,-33.058 -59.53,-33.058 25.72,19.597 20.46,56.668 20.46,56.668 -49.23,-3.829 -61.47,-33.618 -73.1,-55.438 19.25,36.109 9.34,87.481 9.34,87.481 -23.27,-9.801 -55.4,-54.372 -55.4,-54.372 12.25,33.051 -20.6,99.11 -20.6,99.11 -46.23,-26.731 -47.34,-110.25 -47.34,-110.25 -11.34,18.301 -9.62,44.539 -40.81,62.621 -18.51,-38.191 -23.91,-77.902 -17.87,-103.18 -10.71,28.5 -32.53,44.969 -32.53,44.969 -17.15,-19.602 -23.47,-80.238 -23.47,-80.238 1.22,24.468 -24.98,65.058 -24.98,65.058 -11.42,0 -27.24,-16.851 -40.4,-34.019 11.25,24.949 32.45,103.359 32.45,103.359 -38.65,-11.441 -58.46,-69.07 -76.16,-84.89 11.2,17.621 19.24,36.179 19.24,36.179 -13.47,4.903 -59.52,-33.058 -59.52,-33.058 25.71,19.597 28.16,57.539 28.16,57.539 -49.25,-3.828 -69.18,-34.489 -80.82,-56.309 19.26,36.109 -3.33,88.207 -3.33,88.207 -43.671,2.711 -66.386,-63.558 -66.386,-63.558 12.246,33.062 -39.266,107.031 -39.266,107.031 -36.976,-30.61 -23.285,-122.27 -23.285,-122.27 -11.336,18.289 -6.063,40.641 -46.699,59.688 -8.508,-21.789 -7.781,-51.188 -4.703,-76.02 -9.145,25.711 -21.496,45.16 -21.496,45.16 -17.141,-19.578 -31.301,-93.019 -31.301,-93.019 1.219,24.469 -24.985,65.058 -24.985,65.058 -11.418,0 -27.242,-16.847 -40.406,-34.027 11.258,24.957 20.082,53.43 20.082,53.43 -22.597,-2.492 -46.09,-19.141 -63.785,-34.949 11.203,17.609 19.234,36.168 19.234,36.168 -13.464,4.902 -59.519,-33.051 -59.519,-33.051 25.711,19.59 20.457,56.672 20.457,56.672 -49.242,-3.832 -61.473,-33.629 -73.106,-55.442 19.25,36.102 9.332,87.473 9.332,87.473 -23.261,-9.793 -55.39,-54.371 -55.39,-54.371 C 565,711.109 532.16,777.16 532.16,777.16 485.93,750.441 484.813,666.922 484.813,666.922 c -11.336,18.297 -22.934,54.328 -54.114,72.406 -18.519,-38.187 -10.601,-87.699 -4.558,-112.976 -10.719,28.507 -32.539,44.968 -32.539,44.968 -17.141,-19.59 -23.461,-80.23 -23.461,-80.23 1.218,24.469 -24.981,65.058 -24.981,65.058 -11.418,0 -27.246,-16.847 -40.402,-34.027 11.25,24.957 20.074,53.43 20.074,53.43 -22.594,-2.492 -46.09,-19.141 -63.781,-34.949 11.195,17.609 19.234,36.168 19.234,36.168 -13.465,4.902 -59.523,-33.051 -59.523,-33.051 25.711,19.59 28.164,57.531 28.164,57.531 -49.238,-3.82 -69.172,-34.488 -80.805,-56.301 19.246,36.102 17.137,91.801 17.137,91.801 -41.035,-4.191 -77.254,-50.441 -77.254,-50.441 -3.016,31.461 -20.0665,68.543 -20.0665,68.543 C 50.9609,724.238 39.3008,683.629 39.3008,683.629 27.9648,701.922 18.2344,723.738 0,739.328 l 0,-320.84 5000,0.692 0,228.992" /><path
         id="path60"
         style="fill:#417026;fill-opacity:1;fill-rule:nonzero;stroke:none"
         d="m 5000,549.148 c -7.47,-7.207 -14.39,-14.41 -19.73,-18.839 8.59,12.55 -3.05,59.89 -3.05,59.89 -5.17,1.75 -52.71,-24.199 -62.87,-37.801 7.76,14.793 -6.36,47.133 -6.36,47.133 -23.92,-9.609 -23.27,-20.179 -37.55,-42.152 4.7,31.859 -34.27,68.082 -34.27,68.082 -18.14,-25.852 -21.05,-54.609 -21.05,-83.012 0.93,21.992 -26.39,39.039 -26.39,39.039 -7.58,-10.879 -10.87,-21.359 -9.31,-42.027 -1.56,20.668 -15.4,28.488 -28.55,35.57 -11.89,-16.57 -15.78,-46.383 -11.14,-64.39 -8.22,20.32 -28.88,50.898 -28.88,50.898 -13.13,-13.961 -17.99,-57.168 -17.99,-57.168 0.95,17.438 -8.36,83.867 -8.36,83.867 -8.75,0 -31.65,-49.519 -41.73,-61.75 8.02,16.563 4.08,4.184 15.38,38.071 -17.32,-1.77 -35.32,-13.637 -48.88,-24.911 8.59,12.551 7.78,45.524 7.78,45.524 -6.02,2.039 -18.17,-13.051 -27.26,-25.973 7.13,20.27 5.81,48.051 5.81,48.051 -27.82,-2.012 -60.12,-43.238 -61.46,-44.461 6.66,23.563 2.22,47.352 2.22,47.352 -24.68,-2.34 -43.62,-33.661 -44.81,-34.653 -3.12,21.653 -14.94,45.582 -14.94,45.582 -16.67,-12.832 -26.58,-28.07 -31.96,-38.5 1.35,8.18 -14.3,29.559 -25.93,28.571 0,0 -25.46,-34.219 -26.59,-66.411 -17.91,48.758 -48.42,48.622 -48.42,48.622 -18.15,-25.852 -6.09,-54.442 -8.94,-67.961 0.93,22 -35.1,36.847 -35.1,36.847 -16.34,-23.488 -19.74,-43.84 -19.74,-43.84 -8.68,13.043 -10.3,43.75 -34.2,56.633 -11.88,-16.57 -14.09,-53.601 -9.46,-71.621 -1.9,4.692 -7.23,49.961 -7.23,49.961 -8.75,0 -29.29,-14.473 -39.38,-26.711 8.63,17.781 9.61,60.75 9.61,60.75 -17.33,-1.762 -40.41,-30.73 -53.97,-42 8.58,12.551 12.4,44.789 12.4,44.789 -5.16,1.75 -52.71,-24.199 -62.88,-37.801 7.77,14.793 -6.36,47.133 -6.36,47.133 -23.9,-9.609 -30.62,-14.461 -37.53,-42.152 4.69,31.859 -34.27,68.082 -34.27,68.082 -18.16,-25.852 -21.07,-54.609 -21.07,-83.012 0.94,21.992 -26.05,46.789 -26.05,46.789 -7.57,-10.886 -11.19,-29.109 -9.63,-49.777 -1.56,20.668 -15.41,28.488 -28.56,35.57 -11.88,-16.57 -15.77,-46.383 -11.14,-64.39 -8.21,20.32 -28.88,50.898 -28.88,50.898 -13.14,-13.961 -17.98,-57.168 -17.98,-57.168 0.93,17.438 -19.14,46.359 -19.14,46.359 -8.76,0 -20.88,-12.011 -30.97,-24.242 8.63,17.782 15.39,38.071 15.39,38.071 -17.31,-1.77 -35.32,-13.637 -48.88,-24.911 8.58,12.551 14.74,25.782 14.74,25.782 -10.32,3.492 -45.62,-23.551 -45.62,-23.551 19.71,13.961 23.91,49.359 23.91,49.359 -27.82,-2 -66.83,-27.226 -68.17,-28.449 6.67,23.563 2.22,47.352 2.22,47.352 -24.67,-2.34 -43.61,-33.661 -44.8,-34.653 -3.13,21.653 -14.95,45.582 -14.95,45.582 -16.66,-12.832 -26.57,-28.07 -31.95,-38.5 1.35,8.18 -14.3,29.559 -25.93,28.571 0,0 -12.48,-43.289 -14.11,-44.891 4.6,22.84 -34.27,42.898 -34.27,42.898 -18.16,-25.847 -23.38,-41.468 -26.23,-54.988 0.94,21.988 -41.92,44.36 -41.92,44.36 -29.07,-25.629 -22.26,-80.122 -22.26,-80.122 -8.69,13.043 -10.3,43.75 -34.2,56.633 -11.89,-16.57 -15.78,-46.383 -11.15,-64.39 -8.21,20.32 -28.87,50.898 -28.87,50.898 -13.14,-13.961 -17.98,-57.168 -17.98,-57.168 0.93,17.438 -19.14,46.359 -19.14,46.359 -8.76,0 -20.88,-12.011 -30.97,-24.242 8.63,17.782 15.39,38.071 15.39,38.071 -17.32,-1.77 -35.33,-13.637 -48.88,-24.911 8.58,12.551 14.74,25.782 14.74,25.782 -10.32,3.492 -45.62,-23.551 -45.62,-23.551 19.71,13.961 27.91,69.07 27.91,69.07 -37.73,-2.719 -50.58,-29.551 -59.49,-45.097 14.75,25.718 -0.25,59.609 -0.25,59.609 -31.45,-2.992 -54.58,-53.231 -54.58,-53.231 -2.31,22.418 -15.38,48.84 -15.38,48.84 -16.46,-12.672 -22.66,-29.172 -25,-40.8 -3.32,14.21 -18.72,27.878 -29.19,36.191 0,0 -25.04,-53.223 -25.53,-53.672 6.66,23.563 2.22,47.352 2.22,47.352 -24.68,-2.34 -43.62,-33.661 -44.81,-34.653 -3.13,21.653 -14.95,45.582 -14.95,45.582 -16.66,-12.832 -26.58,-28.07 -31.95,-38.5 1.35,8.18 -14.3,29.559 -25.93,28.571 0,0 -25.52,-18.891 -26.59,-66.411 -3.33,22.051 -41.8,40.34 -41.8,40.34 -18.15,-25.84 -12.71,-46.16 -15.56,-59.679 0.93,22 -35.1,36.847 -35.1,36.847 -16.34,-23.488 -19.74,-43.84 -19.74,-43.84 -8.69,13.043 -10.3,43.75 -34.2,56.633 -11.88,-16.57 -14.09,-53.601 -9.47,-71.621 -1.89,4.692 -7.23,49.961 -7.23,49.961 -8.74,0 -29.28,-14.473 -39.37,-26.711 8.63,17.781 9.6,60.75 9.6,60.75 -17.32,-1.762 -40.41,-30.73 -53.96,-42 8.58,12.551 12.4,44.789 12.4,44.789 -5.17,1.75 -52.71,-24.199 -62.88,-37.801 7.77,14.793 -6.36,47.133 -6.36,47.133 -23.91,-9.609 -23.26,-20.179 -37.54,-42.152 -3.34,48.293 -36.37,62.582 -36.37,62.582 -18.15,-25.852 -18.96,-49.109 -18.96,-77.512 0.94,21.992 -31.75,67.102 -31.75,67.102 -19.78,-40.391 -5.5,-49.422 -3.93,-70.09 -1.57,20.668 -15.42,28.488 -28.56,35.57 -11.88,-16.57 -15.77,-46.383 -11.15,-64.39 -8.21,20.32 -28.87,50.898 -28.87,50.898 -13.14,-13.961 -17.98,-57.168 -17.98,-57.168 0.93,17.438 -19.14,46.359 -19.14,46.359 -8.76,0 -20.88,-12.011 -30.97,-24.242 8.63,17.782 15.39,38.071 15.39,38.071 -17.32,-1.77 -35.33,-13.637 -48.88,-24.911 8.58,12.551 14.74,25.782 14.74,25.782 -10.32,3.492 -45.62,-23.551 -45.62,-23.551 19.7,13.961 23.91,49.359 23.91,49.359 -27.82,-2 -66.83,-27.226 -68.17,-28.449 6.67,23.563 2.22,47.352 2.22,47.352 -24.67,-2.34 -43.61,-33.661 -44.8,-34.653 -3.13,21.653 -14.95,45.582 -14.95,45.582 -16.66,-12.832 -26.58,-28.07 -31.95,-38.5 1.35,8.18 -14.31,29.559 -25.93,28.571 0,0 -12.49,-43.289 -14.12,-44.891 4.61,22.84 -34.27,42.898 -34.27,42.898 -23.01,-15.398 -23.37,-41.468 -26.22,-54.988 0.94,21.988 -41.92,44.36 -41.92,44.36 -16.34,-23.489 -22.26,-80.122 -22.26,-80.122 -4.34,6.524 -3.06,35.641 -20.15,51.461 -12.84,-9.808 -15.74,-28.468 -17.38,-40.871 0.41,18.821 -10.6,43.512 -10.6,43.512 -17.33,-1.762 -41.08,-30.918 -54.64,-42.191 8.59,12.55 -3.05,59.89 -3.05,59.89 -5.17,1.75 -52.71,-24.199 -62.87,-37.801 7.76,14.793 -6.36,47.133 -6.36,47.133 -23.92,-9.609 -23.27,-20.179 -37.55,-42.152 4.7,31.859 -34.27,68.082 -34.27,68.082 -18.14,-25.852 -21.05,-54.609 -21.05,-83.012 0.93,21.992 -26.39,39.039 -26.39,39.039 -7.58,-10.879 -10.87,-21.359 -9.31,-42.027 -1.56,20.668 -15.4,28.488 -28.55,35.57 -11.89,-16.57 -15.78,-46.383 -11.14,-64.39 -8.22,20.32 -28.88,50.898 -28.88,50.898 -13.13,-13.961 -17.99,-57.168 -17.99,-57.168 0.94,17.438 -8.36,83.867 -8.36,83.867 -8.75,0 -31.66,-49.519 -41.74,-61.75 8.03,16.563 4.08,4.184 15.38,38.071 -17.31,-1.77 -35.31,-13.637 -48.87,-24.911 8.58,12.551 7.78,45.524 7.78,45.524 -6.02,2.039 -18.17,-13.051 -27.26,-25.973 7.13,20.27 5.8,48.051 5.8,48.051 -27.81,-2.012 -60.12,-43.238 -61.46,-44.461 6.67,23.563 2.23,47.352 2.23,47.352 -24.68,-2.34 -43.62,-33.661 -44.81,-34.653 -3.13,21.653 -14.94,45.582 -14.94,45.582 -16.67,-12.832 -26.59,-28.07 -31.96,-38.5 1.35,8.18 -14.3,29.559 -25.93,28.571 0,0 -25.46,-34.219 -26.59,-66.411 -17.91,48.758 -48.42,48.622 -48.42,48.622 -18.15,-25.852 -6.09,-54.442 -8.94,-67.961 0.93,22 -35.1,36.847 -35.1,36.847 -16.34,-23.488 -19.74,-43.84 -19.74,-43.84 -8.69,13.043 -10.3,43.75 -34.2,56.633 -11.89,-16.57 -14.09,-53.601 -9.47,-71.621 -1.89,4.692 -7.23,49.961 -7.23,49.961 -8.74,0 -29.28,-14.473 -39.37,-26.711 8.63,17.781 9.6,60.75 9.6,60.75 -17.32,-1.762 -40.4,-30.73 -53.96,-42 8.58,12.551 12.39,44.789 12.39,44.789 -5.16,1.75 -52.7,-24.199 -62.87,-37.801 7.77,14.793 -6.36,47.133 -6.36,47.133 -23.906,-9.609 -30.625,-14.461 -37.535,-42.152 4.695,31.859 -34.266,68.082 -34.266,68.082 -18.16,-25.852 -21.066,-54.609 -21.066,-83.012 0.934,21.992 -26.051,46.789 -26.051,46.789 -7.578,-10.886 -11.199,-29.109 -9.637,-49.777 -1.562,20.668 -15.406,28.488 -28.554,35.57 -11.883,-16.57 -15.774,-46.383 -11.141,-64.39 -8.215,20.32 -28.883,50.898 -28.883,50.898 -13.136,-13.961 -17.976,-57.168 -17.976,-57.168 0.929,17.438 -19.145,46.359 -19.145,46.359 -8.754,0 -20.879,-12.011 -30.965,-24.242 8.625,17.782 15.387,38.071 15.387,38.071 -17.312,-1.77 -35.324,-13.637 -48.883,-24.911 8.586,12.551 14.746,25.782 14.746,25.782 -10.32,3.492 -45.617,-23.551 -45.617,-23.551 19.707,13.961 23.903,49.359 23.903,49.359 -27.817,-2 -66.825,-27.226 -68.168,-28.449 6.671,23.563 2.222,47.352 2.222,47.352 -24.676,-2.34 -43.613,-33.661 -44.797,-34.653 -3.132,21.653 -14.953,45.582 -14.953,45.582 -16.66,-12.832 -26.578,-28.07 -31.953,-38.5 1.352,8.18 -14.301,29.559 -25.926,28.571 0,0 -12.48,-43.289 -14.117,-44.891 4.606,22.84 -34.265,42.898 -34.265,42.898 -18.157,-25.847 -23.379,-41.468 -26.227,-54.988 0.934,21.988 -41.922,44.36 -41.922,44.36 -29.074,-25.629 -22.262,-80.122 -22.262,-80.122 -8.691,13.043 -10.3,43.75 -34.199,56.633 -11.89,-16.57 -15.777,-46.383 -11.148,-64.39 -8.215,20.32 -28.875,50.898 -28.875,50.898 -13.133,-13.961 -17.981,-57.168 -17.981,-57.168 0.934,17.438 -19.14,46.359 -19.14,46.359 -8.754,0 -20.879,-12.011 -30.965,-24.242 8.625,17.782 15.387,38.071 15.387,38.071 -17.321,-1.77 -35.325,-13.637 -48.879,-24.911 8.582,12.551 14.738,25.782 14.738,25.782 -10.32,3.492 -45.613,-23.551 -45.613,-23.551 19.699,13.961 27.91,69.082 27.91,69.082 -37.731,-2.731 -50.582,-29.563 -59.496,-45.109 14.75,25.718 -0.25,59.609 -0.25,59.609 C 105.902,622.469 82.7656,572.23 82.7656,572.23 80.4531,594.648 67.3906,621.07 67.3906,621.07 39.0508,599.262 30.1211,570.32 30.1211,570.32 21.4336,583.352 13.9727,598.91 0,610.012 l 0,-228.653 5000,0.129 0,167.66" /><path
         id="path62"
         style="fill:#652e20;fill-opacity:1;fill-rule:nonzero;stroke:none"
         d="m 0,0 5000,0 0,443.801 -5000,0 L 0,0 Z" /><path
         id="path64"
         style="fill:#54251b;fill-opacity:1;fill-rule:nonzero;stroke:none"
         d="m 4136.98,322.469 c -402.8,-45.52 -1315.93,-95.258 -2183.34,6.89 C 1074.63,432.852 329.211,357.961 0,304.691 L 0,287.23 c 325.156,53.032 1070.38,128.79 1950.93,25.071 375.85,-44.25 760.23,-60.063 1108.19,-60.051 59.36,0 117.63,0.461 174.64,1.32 -8.28,-6.449 -14.09,-20.332 -14.09,-29.121 0,-11.769 10.39,-21.308 23.22,-21.308 12.81,0 23.21,9.539 23.21,21.308 0,8.949 -6.02,23.11 -14.54,29.41 374.24,6.2 691.66,29.371 888.02,51.563 306.3,34.598 660.71,31.469 860.42,-3.203 l 0,17.383 c -203.61,34.328 -557.55,37.386 -863.02,2.867" /><path
         id="path66"
         style="fill:#54251b;fill-opacity:1;fill-rule:nonzero;stroke:none"
         d="M 4152.06,215.391 C 3749.51,169.922 2836.96,120.18 1970.05,222.27 1077.08,327.422 321.746,248.559 0,195.129 l 0,-26.207 c 315.273,53.019 1070.52,133.238 1965.98,27.797 376.08,-44.289 760.69,-60.11 1108.86,-60.11 457.32,0 851.74,27.301 1081.13,53.211 323.88,36.602 654.05,29.141 844.03,-1.031 l 0,26.301 c -206.62,31.859 -550.29,33.91 -847.94,0.301" /><path
         id="path68"
         style="fill:#54251b;fill-opacity:1;fill-rule:nonzero;stroke:none"
         d="M 4175.82,99.0313 C 3772.8,56.2383 2859.13,9.42969 1991.08,105.52 1075.63,206.84 305.496,126.18 0,76.1992 l 0,-8.7383 c 303.191,49.8401 1073.36,130.9801 1989.8,29.5274 375.69,-41.5781 759.8,-56.4297 1107.58,-56.4297 456.67,0.0117 850.61,25.6211 1079.67,49.9531 287.51,30.5273 617.57,29.7893 822.95,2.6602 l 0,8.5901 c -206.86,27.058 -536.86,27.789 -824.18,-2.7307" /><path
         id="path70"
         style="fill:#54251b;fill-opacity:1;fill-rule:nonzero;stroke:none"
         d="m 1041.45,97.3516 c -29.53,0 -38.87,-28.211 -38.87,-46.7618 0,-18.5507 11.27,-37.9687 40.79,-37.9687 29.53,0 66.13,19.418 66.13,37.9687 0,18.5508 -38.53,46.7618 -68.05,46.7618" /><path
         id="path72"
         style="fill:#54251b;fill-opacity:1;fill-rule:nonzero;stroke:none"
         d="m 812.898,192.68 c 0,13.781 -6.265,35.879 -24.789,35.879 -18.523,0 -42.285,-22.098 -42.285,-35.879 0,-13.77 2.688,-24.942 21.211,-24.942 18.524,0 45.863,11.172 45.863,24.942" /><path
         id="path74"
         style="fill:#54251b;fill-opacity:1;fill-rule:nonzero;stroke:none"
         d="m 98.5586,43.4688 c -10.1484,0 -23.168,-12.1094 -23.168,-19.6602 0,-7.5469 1.4688,-13.6602 11.6211,-13.6602 10.1485,0 25.1293,6.1133 25.1293,13.6602 0,7.5508 -3.434,19.6602 -13.5824,19.6602" /><path
         id="path76"
         style="fill:#54251b;fill-opacity:1;fill-rule:nonzero;stroke:none"
         d="m 994.688,396.488 c 20.582,0 53.042,13.344 53.042,29.961 0,16.629 -39.84,38.172 -60.421,38.172 -20.575,0 -29.875,-21.41 -29.875,-38.031 0,-16.621 16.675,-30.102 37.254,-30.102" /><path
         id="path78"
         style="fill:#54251b;fill-opacity:1;fill-rule:nonzero;stroke:none"
         d="m 228.707,272.699 c 0,11.762 -10.394,32.641 -23.219,32.641 -12.824,0 -23.218,-20.879 -23.218,-32.641 0,-11.769 10.394,-21.308 23.218,-21.308 12.825,0 23.219,9.539 23.219,21.308" /><path
         id="path80"
         style="fill:#54251b;fill-opacity:1;fill-rule:nonzero;stroke:none"
         d="m 1233.46,408.691 c 7.17,-4.609 17.07,-1.992 22.08,5.821 5.02,7.82 3.27,17.898 -3.91,22.5 -7.18,4.609 -23.98,6.437 -29,-1.391 -5.02,-7.82 3.65,-22.32 10.83,-26.93" /><path
         id="path82"
         style="fill:#54251b;fill-opacity:1;fill-rule:nonzero;stroke:none"
         d="m 143.215,139.941 c 5.012,7.821 3.265,17.899 -3.914,22.5 -7.184,4.61 -23.985,6.438 -28.996,-1.39 -5.024,-7.821 3.644,-22.321 10.828,-26.93 7.172,-4.609 17.066,-1.992 22.082,5.82" /><path
         id="path84"
         style="fill:#54251b;fill-opacity:1;fill-rule:nonzero;stroke:none"
         d="m 441.66,371.27 c 10.922,0 19.778,8.07 19.778,18.011 0,9.938 -8.856,27.559 -19.778,27.559 -10.93,0 -30.113,-12.84 -30.113,-22.781 0,-9.938 19.183,-22.789 30.113,-22.789" /><path
         id="path86"
         style="fill:#54251b;fill-opacity:1;fill-rule:nonzero;stroke:none"
         d="m 652.309,116.109 c -7.805,-7.629 -12.536,-30.2301 -5.579,-37.3395 6.954,-7.0976 29.653,-2.8711 37.465,4.7813 7.801,7.6406 8.485,19.5902 1.532,26.6872 -6.954,7.114 -25.61,13.524 -33.418,5.871" /><path
         id="path88"
         style="fill:#54251b;fill-opacity:1;fill-rule:nonzero;stroke:none"
         d="m 331.461,97.3516 c -27.551,0 -65.488,-28.3321 -65.488,-48.2696 0,-19.9531 4.218,-42.52341 31.765,-42.52341 27.551,0 67.989,22.57031 67.989,42.52341 0,19.9375 -6.719,48.2696 -34.266,48.2696" /><path
         id="path90"
         style="fill:#54251b;fill-opacity:1;fill-rule:nonzero;stroke:none"
         d="m 1310.87,184.07 c 0,8.75 -14.55,17.66 -24.26,17.66 -9.72,0 -14.6,-10.73 -14.6,-19.48 0,-8.738 7.87,-15.828 17.59,-15.828 9.71,0 21.27,8.91 21.27,17.648" /><path
         id="path92"
         style="fill:#54251b;fill-opacity:1;fill-rule:nonzero;stroke:none"
         d="m 905.195,42.0898 c -5.277,0 -7.933,-5.8281 -7.933,-10.5898 0,-4.7383 4.281,-8.6016 9.558,-8.6016 5.282,0 11.559,4.8399 11.559,9.6016 0,4.7617 -7.906,9.5898 -13.184,9.5898" /><path
         id="path94"
         style="fill:#54251b;fill-opacity:1;fill-rule:nonzero;stroke:none"
         d="m 586.324,407.262 c 5.278,0 11.559,4.84 11.559,9.597 0,4.75 -7.906,9.59 -13.188,9.59 -5.277,0 -7.933,-5.84 -7.933,-10.59 0,-4.75 4.285,-8.597 9.562,-8.597" /><path
         id="path96"
         style="fill:#54251b;fill-opacity:1;fill-rule:nonzero;stroke:none"
         d="m 597.883,205.34 c 0,4.762 -7.906,9.59 -13.188,9.59 -5.277,0 -7.933,-5.828 -7.933,-10.59 0,-4.738 4.285,-8.602 9.562,-8.602 5.278,0 11.559,4.852 11.559,9.602" /><path
         id="path98"
         style="fill:#54251b;fill-opacity:1;fill-rule:nonzero;stroke:none"
         d="m 43.9063,330.91 c 5.2773,0 11.5585,4.84 11.5585,9.602 0,4.75 -7.9062,9.59 -13.1835,9.59 -5.2774,0 -7.9375,-5.832 -7.9375,-10.59 0,-4.742 4.2851,-8.602 9.5625,-8.602" /><path
         id="path100"
         style="fill:#54251b;fill-opacity:1;fill-rule:nonzero;stroke:none"
         d="m 1432.88,64.5781 c -5.28,0 -7.94,-5.8281 -7.94,-10.5898 0,-4.7383 4.28,-8.5977 9.56,-8.5977 5.28,0 11.56,4.8399 11.56,9.5977 0,4.7617 -7.91,9.5898 -13.18,9.5898" /><path
         id="path102"
         style="fill:#54251b;fill-opacity:1;fill-rule:nonzero;stroke:none"
         d="m 1321.43,305.34 c 0,4.762 -7.91,9.59 -13.18,9.59 -5.28,0 -7.94,-5.828 -7.94,-10.59 0,-4.738 4.29,-8.602 9.56,-8.602 5.28,0 11.56,4.852 11.56,9.602" /><path
         id="path104"
         style="fill:#54251b;fill-opacity:1;fill-rule:nonzero;stroke:none"
         d="m 1435.5,322.922 c 0,9.707 -5.78,21.84 -16.23,21.84 -10.44,0 -27.79,-12.133 -27.79,-21.84 0,-9.711 14.66,-17.582 25.1,-17.582 10.45,0 18.92,7.871 18.92,17.582" /><path
         id="path106"
         style="fill:#54251b;fill-opacity:1;fill-rule:nonzero;stroke:none"
         d="m 2729.05,90.1992 c 0,13.1918 -27.41,33.2618 -48.4,33.2618 -20.99,0 -27.64,-20.07 -27.64,-33.2618 0,-13.1992 8.01,-27.0078 29.01,-27.0078 21,0 47.03,13.8086 47.03,27.0078" /><path
         id="path108"
         style="fill:#54251b;fill-opacity:1;fill-rule:nonzero;stroke:none"
         d="m 2374.73,118.27 c 0,13.781 -6.27,35.878 -24.79,35.878 -18.53,0 -42.29,-22.097 -42.29,-35.878 0,-13.782 2.69,-24.9419 21.21,-24.9419 18.52,0 45.87,11.1599 45.87,24.9419" /><path
         id="path110"
         style="fill:#54251b;fill-opacity:1;fill-rule:nonzero;stroke:none"
         d="m 1715.82,57.2188 c -10.15,0 -23.17,-12.1094 -23.17,-19.6602 0,-7.5469 1.47,-13.6602 11.62,-13.6602 10.15,0 25.13,6.1133 25.13,13.6602 0,7.5508 -3.43,19.6602 -13.58,19.6602" /><path
         id="path112"
         style="fill:#54251b;fill-opacity:1;fill-rule:nonzero;stroke:none"
         d="m 2353.28,315.281 c 20.57,0 53.03,13.34 53.03,29.957 0,16.621 -39.83,38.172 -60.41,38.172 -20.58,0 -29.88,-21.41 -29.88,-38.031 0,-16.617 16.68,-30.098 37.26,-30.098" /><path
         id="path114"
         style="fill:#54251b;fill-opacity:1;fill-rule:nonzero;stroke:none"
         d="m 1867.82,268.391 c 0,11.769 -10.39,32.648 -23.22,32.648 -12.82,0 -23.21,-20.879 -23.21,-32.648 0,-11.77 10.39,-21.313 23.21,-21.313 12.83,0 23.22,9.543 23.22,21.313" /><path
         id="path116"
         style="fill:#54251b;fill-opacity:1;fill-rule:nonzero;stroke:none"
         d="m 2743.96,295.238 c 7.16,-4.597 17.06,-1.988 22.06,5.821 5.02,7.832 3.28,17.902 -3.9,22.5 -7.19,4.613 -23.98,6.441 -29.01,-1.379 -5.01,-7.821 3.66,-22.328 10.85,-26.942" /><path
         id="path118"
         style="fill:#54251b;fill-opacity:1;fill-rule:nonzero;stroke:none"
         d="m 1644.84,122.602 c -7.18,4.609 -23.99,6.429 -29,-1.391 -5.02,-7.82 3.65,-22.3204 10.83,-26.9297 7.17,-4.6094 17.06,-1.9922 22.08,5.8207 5.01,7.82 3.27,17.898 -3.91,22.5" /><path
         id="path120"
         style="fill:#54251b;fill-opacity:1;fill-rule:nonzero;stroke:none"
         d="m 1814.81,365.488 c 10.93,0 19.78,8.063 19.78,18.012 0,9.941 -8.85,27.559 -19.78,27.559 -10.92,0 -30.11,-12.84 -30.11,-22.778 0,-9.941 19.19,-22.793 30.11,-22.793" /><path
         id="path122"
         style="fill:#54251b;fill-opacity:1;fill-rule:nonzero;stroke:none"
         d="m 2134.26,54.0508 c -7.81,-7.6289 -12.54,-30.2305 -5.58,-37.3399 6.95,-7.10152 29.65,-2.8711 37.46,4.7696 7.81,7.6484 8.49,19.6015 1.54,26.6992 -6.96,7.1094 -25.62,13.5195 -33.42,5.8711" /><path
         id="path124"
         style="fill:#54251b;fill-opacity:1;fill-rule:nonzero;stroke:none"
         d="m 1886.88,90.7891 c -27.55,0 -65.49,-28.3282 -65.49,-48.2696 0,-19.9492 4.22,-42.5195 31.76,-42.5195 27.55,0 67.99,22.5703 67.99,42.5195 0,19.9414 -6.72,48.2696 -34.26,48.2696" /><path
         id="path126"
         style="fill:#54251b;fill-opacity:1;fill-rule:nonzero;stroke:none"
         d="m 2601.14,222.988 c 0,8.75 -14.55,17.653 -24.25,17.653 -9.72,0 -14.61,-10.731 -14.61,-19.481 0,-8.738 7.88,-15.828 17.59,-15.828 9.71,0 21.27,8.918 21.27,17.656" /><path
         id="path128"
         style="fill:#54251b;fill-opacity:1;fill-rule:nonzero;stroke:none"
         d="m 2383.72,22.6797 c -5.28,0 -7.94,-5.8399 -7.94,-10.5899 0,-4.74996 4.28,-8.60152 9.56,-8.60152 5.28,0 11.56,4.83985 11.56,9.60152 0,4.75 -7.91,9.5899 -13.18,9.5899" /><path
         id="path130"
         style="fill:#54251b;fill-opacity:1;fill-rule:nonzero;stroke:none"
         d="m 2112.98,353.629 c 5.28,0 11.56,4.851 11.56,9.601 0,4.758 -7.91,9.59 -13.19,9.59 -5.28,0 -7.93,-5.832 -7.93,-10.582 0,-4.75 4.28,-8.609 9.56,-8.609" /><path
         id="path132"
         style="fill:#54251b;fill-opacity:1;fill-rule:nonzero;stroke:none"
         d="m 2103.42,165.5 c 0,4.75 -7.91,9.59 -13.19,9.59 -5.27,0 -7.93,-5.828 -7.93,-10.59 0,-4.738 4.28,-8.602 9.56,-8.602 5.28,0 11.56,4.84 11.56,9.602" /><path
         id="path134"
         style="fill:#54251b;fill-opacity:1;fill-rule:nonzero;stroke:none"
         d="m 1561,300.66 c 0,4.762 -7.9,9.59 -13.18,9.59 -5.28,0 -7.94,-5.828 -7.94,-10.578 0,-4.75 4.28,-8.613 9.56,-8.613 5.28,0 11.56,4.851 11.56,9.601" /><path
         id="path136"
         style="fill:#54251b;fill-opacity:1;fill-rule:nonzero;stroke:none"
         d="m 2938.42,24.7383 c -5.28,0 -7.94,-5.8281 -7.94,-10.5899 0,-4.74996 4.29,-8.59762 9.56,-8.59762 5.27,0 11.56,4.83982 11.56,9.59762 0,4.75 -7.91,9.5899 -13.18,9.5899" /><path
         id="path138"
         style="fill:#54251b;fill-opacity:1;fill-rule:nonzero;stroke:none"
         d="m 1498.41,416.859 c 5.28,0 11.57,4.84 11.57,9.59 0,4.762 -7.92,9.602 -13.19,9.602 -5.28,0 -7.94,-5.84 -7.94,-10.59 0,-4.75 4.29,-8.602 9.56,-8.602" /><path
         id="path140"
         style="fill:#54251b;fill-opacity:1;fill-rule:nonzero;stroke:none"
         d="m 2944.13,285.641 c 10.45,0 18.92,7.871 18.92,17.57 0,9.711 -5.78,21.84 -16.23,21.84 -10.44,0 -27.8,-12.129 -27.8,-21.84 0,-9.699 14.67,-17.57 25.11,-17.57" /><path
         id="path142"
         style="fill:#54251b;fill-opacity:1;fill-rule:nonzero;stroke:none"
         d="m 4167.12,66.4883 c -23.12,0 -30.42,-22.0781 -30.42,-36.5899 0,-14.5078 8.82,-29.718712 31.92,-29.718712 23.1,0 51.74,15.210912 51.74,29.718712 0,14.5118 -30.15,36.5899 -53.24,36.5899" /><path
         id="path144"
         style="fill:#54251b;fill-opacity:1;fill-rule:nonzero;stroke:none"
         d="m 3780.55,105.012 c 0,13.777 -6.27,35.879 -24.79,35.879 -18.52,0 -42.28,-22.102 -42.28,-35.879 0,-13.7815 2.68,-24.9417 21.21,-24.9417 18.51,0 45.86,11.1602 45.86,24.9417" /><path
         id="path146"
         style="fill:#54251b;fill-opacity:1;fill-rule:nonzero;stroke:none"
         d="m 3022.36,80.6094 c 0,7.539 -3.42,19.6526 -13.57,19.6526 -10.16,0 -23.16,-12.1136 -23.16,-19.6526 0,-7.5508 1.46,-13.668 11.62,-13.668 10.13,0 25.11,6.1172 25.11,13.668" /><path
         id="path148"
         style="fill:#54251b;fill-opacity:1;fill-rule:nonzero;stroke:none"
         d="m 3902.74,316.262 c 20.58,0 53.04,13.34 53.04,29.957 0,16.621 -39.83,38.172 -60.42,38.172 -20.58,0 -29.88,-21.411 -29.88,-38.032 0,-16.621 16.68,-30.097 37.26,-30.097" /><path
         id="path150"
         style="fill:#54251b;fill-opacity:1;fill-rule:nonzero;stroke:none"
         d="m 4270.86,360.449 c 7.17,-4.609 17.07,-1.988 22.08,5.821 5.01,7.82 3.27,17.902 -3.92,22.5 -7.17,4.609 -23.98,6.429 -28.99,-1.391 -5.02,-7.82 3.64,-22.32 10.83,-26.93" /><path
         id="path152"
         style="fill:#54251b;fill-opacity:1;fill-rule:nonzero;stroke:none"
         d="m 3180.6,91.6992 c 5.03,7.8203 3.28,17.9028 -3.9,22.4998 -7.19,4.61 -23.99,6.442 -29,-1.39 -5.02,-7.821 3.65,-22.3207 10.83,-26.9301 7.17,-4.6094 17.07,-1.9883 22.07,5.8203" /><path
         id="path154"
         style="fill:#54251b;fill-opacity:1;fill-rule:nonzero;stroke:none"
         d="m 3538.17,304.75 c 10.92,0 19.77,8.059 19.77,18 0,9.949 -8.85,27.57 -19.77,27.57 -10.93,0 -30.11,-12.84 -30.11,-22.781 0,-9.937 19.18,-22.789 30.11,-22.789" /><path
         id="path156"
         style="fill:#54251b;fill-opacity:1;fill-rule:nonzero;stroke:none"
         d="m 3755.98,43.5 c -7.82,-7.6406 -12.54,-30.2383 -5.59,-37.35156 6.95,-7.097659 29.66,-2.86719 37.47,4.78126 7.8,7.6406 8.49,19.6016 1.53,26.6992 -6.95,7.1094 -25.6,13.5117 -33.41,5.8711" /><path
         id="path158"
         style="fill:#54251b;fill-opacity:1;fill-rule:nonzero;stroke:none"
         d="m 3448.95,91.3906 c 0,13.5004 -4.56,32.6914 -23.22,32.6914 -18.66,0 -44.36,-19.191 -44.36,-32.6914 0,-13.5195 2.86,-28.8125 21.52,-28.8125 18.66,0 46.06,15.293 46.06,28.8125" /><path
         id="path160"
         style="fill:#54251b;fill-opacity:1;fill-rule:nonzero;stroke:none"
         d="m 4315.22,163.301 c 0,8.75 -14.55,17.66 -24.25,17.66 -9.71,0 -14.6,-10.742 -14.6,-19.492 0,-8.739 7.88,-15.828 17.58,-15.828 9.71,0 21.27,8.918 21.27,17.66" /><path
         id="path162"
         style="fill:#54251b;fill-opacity:1;fill-rule:nonzero;stroke:none"
         d="m 3955.78,136.621 c 0,4.758 -7.91,9.59 -13.18,9.59 -5.29,0 -7.94,-5.832 -7.94,-10.59 0,-4.742 4.29,-8.601 9.56,-8.601 5.27,0 11.56,4.839 11.56,9.601" /><path
         id="path164"
         style="fill:#54251b;fill-opacity:1;fill-rule:nonzero;stroke:none"
         d="m 3712.48,317.941 c 5.28,0 11.55,4.84 11.55,9.598 0,4.762 -7.9,9.59 -13.18,9.59 -5.27,0 -7.93,-5.828 -7.93,-10.59 0,-4.738 4.28,-8.598 9.56,-8.598" /><path
         id="path166"
         style="fill:#54251b;fill-opacity:1;fill-rule:nonzero;stroke:none"
         d="m 3601.62,100.891 c 0,4.75 -7.9,9.589 -13.18,9.589 -5.28,0 -7.93,-5.832 -7.93,-10.5894 0,-4.7422 4.27,-8.6015 9.56,-8.6015 5.28,0 11.55,4.8398 11.55,9.6019" /><path
         id="path168"
         style="fill:#54251b;fill-opacity:1;fill-rule:nonzero;stroke:none"
         d="m 3081.31,282.672 c 5.27,0 11.55,4.84 11.55,9.598 0,4.75 -7.9,9.589 -13.18,9.589 -5.29,0 -7.94,-5.839 -7.94,-10.589 0,-4.75 4.28,-8.598 9.57,-8.598" /><path
         id="path170"
         style="fill:#54251b;fill-opacity:1;fill-rule:nonzero;stroke:none"
         d="m 4480.83,56.5508 c -5.27,0 -7.93,-5.832 -7.93,-10.582 0,-4.75 4.28,-8.6094 9.55,-8.6094 5.28,0 11.56,4.8515 11.56,9.6015 0,4.7579 -7.91,9.5899 -13.18,9.5899" /><path
         id="path172"
         style="fill:#54251b;fill-opacity:1;fill-rule:nonzero;stroke:none"
         d="m 4358.83,257.102 c 0,4.757 -7.91,9.589 -13.19,9.589 -5.27,0 -7.93,-5.832 -7.93,-10.589 0,-4.743 4.28,-8.602 9.56,-8.602 5.28,0 11.56,4.84 11.56,9.602" /><path
         id="path174"
         style="fill:#54251b;fill-opacity:1;fill-rule:nonzero;stroke:none"
         d="m 4472.9,274.68 c 0,9.711 -5.78,21.832 -16.23,21.832 -10.44,0 -27.79,-12.121 -27.79,-21.832 0,-9.711 14.65,-17.578 25.1,-17.578 10.45,0 18.92,7.867 18.92,17.578" /><path
         id="path176"
         style="fill:#54251b;fill-opacity:1;fill-rule:nonzero;stroke:none"
         d="m 4890.36,160.301 c 0,7.551 -3.44,19.66 -13.57,19.66 -10.16,0 -23.18,-12.109 -23.18,-19.66 0,-7.551 1.48,-13.66 11.62,-13.66 10.15,0 25.13,6.109 25.13,13.66" /><path
         id="path178"
         style="fill:#54251b;fill-opacity:1;fill-rule:nonzero;stroke:none"
         d="m 1298.38,62.9297 c -8.34,-11.1406 -0.52,-24.8594 8.48,-31.5899 9,-6.7382 23.06,-3.1679 31.4,7.9805 8.34,11.1406 14.27,34.1211 5.28,40.8594 -9,6.7305 -36.82,-6.1094 -45.16,-17.25" /><path
         id="path180"
         style="fill:#54251b;fill-opacity:1;fill-rule:nonzero;stroke:none"
         d="m 4725.2,174.301 c 0,11.758 -10.39,32.64 -23.22,32.64 -12.81,0 -23.21,-20.882 -23.21,-32.64 0,-11.77 10.4,-21.313 23.21,-21.313 12.83,0 23.22,9.543 23.22,21.313" /><path
         id="path182"
         style="fill:#54251b;fill-opacity:1;fill-rule:nonzero;stroke:none"
         d="m 4719.49,53.8711 c -7.18,4.6094 -23.98,6.4297 -28.99,-1.3906 -5.02,-7.8203 3.64,-22.3203 10.82,-26.9297 7.18,-4.6094 17.07,-2 22.09,5.8203 5.01,7.8203 3.26,17.8984 -3.92,22.5" /><path
         id="path184"
         style="fill:#54251b;fill-opacity:1;fill-rule:nonzero;stroke:none"
         d="m 4895.53,352.672 c 10.92,0 19.78,8.058 19.78,18 0,9.937 -8.86,27.566 -19.78,27.566 -10.92,0 -30.11,-12.84 -30.11,-22.777 0,-9.941 19.19,-22.789 30.11,-22.789" /><path
         id="path186"
         style="fill:#54251b;fill-opacity:1;fill-rule:nonzero;stroke:none"
         d="m 4912.53,92.3516 c -27.56,0 -65.49,-28.3321 -65.49,-48.2696 0,-19.9531 4.22,-42.52341 31.76,-42.52341 27.56,0 67.99,22.57031 67.99,42.52341 0,19.9375 -6.72,48.2696 -34.26,48.2696" /><path
         id="path188"
         style="fill:#54251b;fill-opacity:1;fill-rule:nonzero;stroke:none"
         d="m 4000.47,50.1484 c -5.27,0 -7.93,-5.8281 -7.93,-10.5898 0,-4.75 4.28,-8.5977 9.55,-8.5977 5.28,0 11.56,4.8399 11.56,9.5977 0,4.75 -7.91,9.5898 -13.18,9.5898" /><path
         id="path190"
         style="fill:#54251b;fill-opacity:1;fill-rule:nonzero;stroke:none"
         d="m 4075.83,365.859 c 5.28,0 11.56,4.84 11.56,9.602 0,4.75 -7.91,9.59 -13.18,9.59 -5.27,0 -7.93,-5.832 -7.93,-10.59 0,-4.742 4.28,-8.602 9.55,-8.602" /><path
         id="path192"
         style="fill:#54251b;fill-opacity:1;fill-rule:nonzero;stroke:none"
         d="m 4738.51,393.09 c 10.51,0 23.05,9.648 23.05,19.14 0,9.481 -15.77,19.11 -26.29,19.11 -10.52,0 -15.82,-11.621 -15.82,-21.11 0,-9.449 8.55,-17.14 19.06,-17.14" /><path
         id="path194"
         style="fill:#54251b;fill-opacity:1;fill-rule:nonzero;stroke:none"
         d="m 4636.85,276.82 c 0,4.75 -7.9,9.59 -13.18,9.59 -5.27,0 -7.93,-5.832 -7.93,-10.59 0,-4.75 4.28,-8.601 9.55,-8.601 5.29,0 11.56,4.84 11.56,9.601" /><path
         id="path196"
         style="fill:#54251b;fill-opacity:1;fill-rule:nonzero;stroke:none"
         d="m 972.539,310.25 c 0,4.762 -7.91,9.59 -13.184,9.59 -5.292,0 -7.949,-5.828 -7.949,-10.578 0,-4.75 4.297,-8.614 9.571,-8.614 5.273,0 11.562,4.852 11.562,9.602" /><path
         id="path198"
         style="fill:#54251b;fill-opacity:1;fill-rule:nonzero;stroke:none"
         d="m 4535.81,368.609 c 5.27,0 11.56,4.852 11.56,9.602 0,4.758 -7.91,9.59 -13.18,9.59 -5.28,0 -7.94,-5.832 -7.94,-10.582 0,-4.75 4.29,-8.61 9.56,-8.61" /><path
         id="path200"
         style="fill:#54251b;fill-opacity:1;fill-rule:nonzero;stroke:none"
         d="m 0,454.898 0,-56.546 10.3633,-16.911 17.293,46.289 16.6601,-44.46 19.1406,18.14 4.8711,-18.14 11.3282,18.359 15.4414,-10.391 10.4413,11.352 12.211,-14.09 13.719,14.129 4.121,-19.359 18.461,16.199 5.176,-12.957 19.097,21.41 13.84,-25.141 20.816,20.649 8.7,-21.399 17.539,37.34 16.773,-29.449 12.246,10.816 17.262,-15.476 11.848,18.367 0.992,0 13.601,-22.188 16.965,37.469 16.989,-35.64 19.14,18.14 4.879,-18.14 11.32,18.359 15.446,-10.391 10.437,11.352 12.211,-14.09 13.719,14.129 4.117,-19.359 9.902,15.48 16.762,-12.852 7.129,40.75 11.848,-43.867 20.808,20.649 8.703,-21.399 14.668,36.141 19.653,-28.25 12.242,10.816 17.258,-15.476 11.855,18.367 0.992,0 13.598,-22.188 19.406,21.168 14.547,-19.339 7.594,39.308 16.422,-39.308 11.324,18.359 15.441,-10.391 10.45,11.352 12.207,-14.09 13.707,14.129 4.129,-19.359 18.464,16.199 5.168,-12.957 13.789,16.078 19.153,-19.809 20.816,20.649 8.696,-21.399 36.003,49.707 -1.687,-41.816 12.246,10.816 17.258,-15.476 11.855,18.367 0.985,0 13.605,-22.188 19.406,21.168 14.547,-19.339 19.145,18.14 4.875,-18.14 11.32,18.359 15.442,-10.391 10.449,11.352 12.196,-14.09 13.72,14.129 4.13,-19.359 11.62,18.539 9.45,-20.368 9.43,21.149 19.16,-19.809 20.81,20.649 8.7,-21.399 34.8,29.821 11.14,-19.082 15.11,25.402 11.93,-36.731 13.52,36.731 3.76,-36.731 19.4,21.168 14.54,-19.339 19.15,18.14 4.89,-18.14 11.32,18.359 15.44,-10.391 10.44,11.352 12.2,-14.09 13.72,14.129 4.13,-19.359 18.46,16.199 5.17,-12.957 13.79,16.078 19.16,-19.809 0.91,35.391 28.6,-36.141 20.24,18.707 14.07,-10.816 12.24,10.816 17.26,-15.476 12.84,18.367 13.6,-22.188 19.41,21.168 14.55,-19.339 19.13,18.14 4.88,-18.14 17.62,44.492 9.15,-36.524 10.44,11.352 12.21,-14.09 13.72,14.129 4.12,-19.359 13.53,17.878 8.91,-19.707 6.58,21.149 19.16,-19.809 20.81,20.649 8.7,-21.399 20.24,18.707 14.07,-10.816 12.25,10.816 17.26,-15.476 12.84,18.367 13.6,-22.188 19.4,21.168 14.55,-19.339 19.14,18.14 4.88,-18.14 11.33,18.359 15.44,-10.391 10.44,11.352 12.21,-14.09 13.72,14.129 4.12,-19.359 22.33,42.929 1.3,-39.687 13.79,16.078 19.16,-19.809 20.81,20.649 8.7,-21.399 20.24,18.707 14.07,-10.816 12.25,10.816 17.26,-15.476 11.85,18.367 0.98,0 13.61,-22.188 19.4,21.168 14.55,-19.339 19.14,18.14 4.88,-18.14 11.32,18.359 15.45,-10.391 21.71,26.192 0.93,-28.93 13.73,14.129 4.12,-19.359 11.62,18.539 9.44,-20.368 11.66,36.731 16.94,-35.391 20.81,20.649 8.69,-21.399 20.25,18.707 14.07,-10.816 12.25,10.816 17.26,-15.476 11.85,18.367 0.99,0 13.6,-22.188 19.4,21.168 14.55,-19.339 9.25,34.902 14.77,-34.902 11.32,18.359 15.45,-10.391 10.44,11.352 12.2,-14.09 13.73,14.129 4.12,-19.359 18.45,16.199 5.18,-12.957 13.78,16.078 19.16,-19.809 20.81,20.649 8.7,-21.399 20.25,18.707 14.07,-10.816 12.25,28.25 17.26,-32.91 11.85,18.367 0.98,0 13.61,-22.188 19.4,21.168 14.55,-19.339 19.14,18.14 4.88,-18.14 11.32,18.359 15.45,-10.391 9.42,41.821 13.22,-44.559 16.52,29.672 1.33,-34.902 17.9,15.718 0,-0.718 10.37,-16.911 22.59,51.321 11.36,-49.489 19.14,18.137 4.87,-18.137 11.33,18.36 15.44,-10.391 10.44,11.352 12.21,-14.09 13.72,14.129 4.12,-19.36 18.47,16.2 5.17,-12.961 26.53,31.66 6.41,-35.391 20.81,20.653 8.7,-21.403 19.08,46.66 15.24,-38.769 12.24,10.82 17.26,-15.48 11.85,18.371 0.99,0 13.61,-22.192 16.38,36.653 17.57,-34.821 19.14,18.137 4.88,-18.137 11.32,18.36 15.44,-10.391 10.44,11.352 12.21,-14.09 13.72,14.129 4.12,-19.36 9.9,15.481 16.76,-12.852 7.13,40.75 11.85,-43.871 20.81,20.653 8.7,-21.403 14.67,36.141 19.65,-28.25 12.24,10.82 17.26,-15.48 11.85,18.371 1,0 13.59,-22.192 19.41,21.172 14.55,-19.34 7.59,39.309 16.43,-39.309 11.32,18.36 15.44,-10.391 10.45,11.352 12.21,-14.09 13.7,14.129 4.13,-19.36 18.47,16.2 5.17,-12.961 13.78,16.082 19.16,-19.813 20.81,20.653 8.7,-21.403 36,49.711 -1.69,-41.82 12.25,10.82 17.26,-15.48 11.85,18.371 0.99,0 13.6,-22.192 19.41,21.172 14.55,-19.34 19.14,18.137 4.87,-18.137 11.33,18.36 15.44,-10.391 10.45,11.352 12.2,-14.09 13.72,14.129 4.12,-19.36 11.62,18.539 9.45,-20.371 9.43,21.153 19.16,-19.813 20.81,20.653 8.7,-21.403 34.81,29.821 11.14,-19.079 15.11,25.399 11.92,-36.731 13.52,36.731 3.76,-36.731 19.4,21.172 14.55,-19.34 19.14,18.137 4.89,-18.137 11.32,18.36 15.44,-10.391 10.44,11.352 12.21,-14.09 13.72,14.129 4.12,-19.36 18.46,16.2 5.17,-12.961 13.8,16.082 19.15,-19.813 0.91,35.391 28.6,-36.141 20.25,18.711 14.06,-10.82 12.25,10.82 17.26,-15.48 12.84,18.371 13.6,-22.192 19.4,21.172 14.55,-19.34 19.14,18.137 4.88,-18.137 17.61,44.489 9.16,-36.52 10.44,11.352 12.21,-14.09 13.72,14.129 4.12,-19.36 13.52,17.879 8.91,-19.711 6.58,21.153 19.16,-19.813 20.81,20.653 8.7,-21.403 20.25,18.711 14.07,-10.82 12.24,10.82 17.26,-15.48 12.84,18.371 13.6,-22.192 19.4,21.172 14.56,-19.34 19.13,18.137 4.88,-18.137 11.33,18.36 15.44,-10.391 10.44,11.352 12.21,-14.09 13.72,14.129 4.12,-19.36 22.33,42.93 1.3,-39.691 13.79,16.082 19.16,-19.813 20.81,20.653 8.7,-21.403 20.25,18.711 14.06,-10.82 12.25,10.82 17.26,-15.48 11.85,18.371 0.99,0 13.6,-22.192 19.4,21.172 14.55,-19.34 19.15,18.137 4.88,-18.137 11.31,18.36 1.04,-0.692 0,53.961 -5000,0.078" /><path
         id="path202"
         style="fill:#8ab043;fill-opacity:1;fill-rule:nonzero;stroke:none"
         d="m 0,480.051 0,-56.563 10.3633,-16.898 22.5937,51.308 11.3594,-49.476 19.1406,18.129 4.8711,-18.129 11.3282,18.359 15.4414,-10.402 10.4413,11.351 12.211,-14.089 13.719,14.129 4.121,-19.348 18.461,16.199 5.176,-12.973 26.523,31.672 6.414,-35.398 20.816,20.648 8.7,-21.398 19.082,46.656 15.23,-38.758 12.246,10.821 17.262,-15.493 11.848,18.383 0.992,0 13.601,-22.191 17.446,45.199 16.508,-43.367 19.14,18.129 4.879,-18.129 11.32,18.359 15.446,-10.402 10.437,11.351 12.211,-14.089 13.719,14.129 4.117,-19.348 9.902,15.469 16.762,-12.84 7.129,40.75 11.848,-43.879 20.808,20.648 8.703,-21.398 14.668,36.148 19.653,-28.25 12.242,10.821 17.258,-15.493 11.855,18.383 0.992,0 13.598,-22.191 19.406,21.16 14.547,-19.328 7.594,39.297 16.422,-39.297 11.324,18.359 15.441,-10.402 10.45,11.351 12.207,-14.089 13.707,14.129 4.129,-19.348 18.464,16.199 5.168,-12.973 13.789,16.082 19.153,-19.808 20.816,20.648 8.696,-21.398 36.003,49.719 -1.687,-41.821 12.246,10.821 17.258,-15.493 11.855,18.383 0.985,0 13.605,-22.191 19.406,21.16 14.547,-19.328 19.145,18.129 4.875,-18.129 11.32,18.359 15.442,-10.402 10.449,11.351 12.196,-14.089 13.72,14.129 4.13,-19.348 11.62,18.527 9.45,-20.359 9.43,21.14 19.16,-19.808 20.81,20.648 8.7,-21.398 34.8,29.828 11.14,-19.078 15.11,25.398 11.93,-36.73 13.52,36.73 3.76,-36.73 19.4,21.16 14.54,-19.328 19.15,18.129 4.89,-18.129 11.32,18.359 15.44,-10.402 10.44,11.351 12.2,-14.089 13.72,14.129 4.13,-19.348 18.46,16.199 5.17,-12.973 13.79,16.082 19.16,-19.808 0.91,35.398 28.6,-36.148 20.24,18.719 14.07,-10.821 12.24,10.821 17.26,-15.493 12.84,18.383 13.6,-22.191 19.41,21.16 14.55,-19.328 19.13,18.129 4.88,-18.129 17.62,44.488 9.15,-36.531 10.44,11.351 12.21,-14.089 13.72,14.129 4.12,-19.348 13.53,17.867 8.91,-19.699 6.58,21.14 19.16,-19.808 20.81,20.648 8.7,-21.398 20.24,18.719 14.07,-10.821 12.25,10.821 17.26,-15.493 12.84,18.383 13.6,-22.191 19.4,21.16 14.55,-19.328 19.14,18.129 4.88,-18.129 11.33,18.359 15.44,-10.402 10.44,11.351 12.21,-14.089 13.72,14.129 4.12,-19.348 22.33,42.918 1.3,-39.692 13.79,16.082 19.16,-19.808 20.81,20.648 8.7,-21.398 20.24,18.719 14.07,-10.821 12.25,10.821 17.26,-15.493 11.85,18.383 0.98,0 13.61,-22.191 19.4,21.16 14.55,-19.328 19.14,18.129 4.88,-18.129 11.32,18.359 15.45,-10.402 21.71,26.191 0.93,-28.929 13.73,14.129 4.12,-19.348 11.62,18.527 9.44,-20.359 11.66,36.73 16.94,-35.398 20.81,20.648 8.69,-21.398 20.25,18.719 14.07,-10.821 12.25,10.821 17.26,-15.493 11.85,18.383 0.99,0 13.6,-22.191 19.4,21.16 14.55,-19.328 9.25,34.898 14.77,-34.898 11.32,18.359 15.45,-10.402 10.44,11.351 12.2,-14.089 13.73,14.129 4.12,-19.348 18.45,16.199 5.18,-12.973 13.78,16.082 19.16,-19.808 20.81,20.648 8.7,-21.398 20.25,18.719 14.07,-10.821 12.25,28.25 17.26,-32.922 11.85,18.383 0.98,0 13.61,-22.191 19.4,21.16 14.55,-19.328 19.14,18.129 4.88,-18.129 11.32,18.359 15.45,-10.402 9.42,41.832 13.22,-44.57 16.52,29.679 1.33,-34.898 17.9,15.719 0,-0.731 10.37,-16.898 22.59,51.308 11.36,-49.492 19.14,18.141 4.87,-18.141 11.33,18.371 15.44,-10.398 10.44,11.347 12.21,-14.089 13.72,14.132 4.12,-19.363 18.47,16.211 5.17,-12.969 26.53,31.668 6.41,-35.398 20.81,20.648 8.7,-21.398 19.08,46.66 15.24,-38.762 12.24,10.813 17.26,-15.481 11.85,18.379 0.99,0 13.61,-22.187 17.44,45.199 16.51,-43.383 19.14,18.141 4.88,-18.141 11.32,18.371 15.44,-10.398 10.44,11.347 12.21,-14.089 13.72,14.132 4.12,-19.363 9.9,15.481 16.76,-12.84 7.13,40.75 11.85,-43.879 20.81,20.648 8.7,-21.398 14.67,36.148 19.65,-28.25 12.24,10.813 17.26,-15.481 11.85,18.379 1,0 13.59,-22.187 19.41,21.16 14.55,-19.344 7.59,39.313 16.43,-39.313 11.32,18.371 15.44,-10.398 10.45,11.347 12.21,-14.089 13.7,14.132 4.13,-19.363 18.47,16.211 5.17,-12.969 13.78,16.078 19.16,-19.808 20.81,20.648 8.7,-21.398 36,49.719 -1.69,-41.821 12.25,10.813 17.26,-15.481 11.85,18.379 0.99,0 13.6,-22.187 19.41,21.16 14.55,-19.344 19.14,18.141 4.87,-18.141 11.33,18.371 15.44,-10.398 10.45,11.347 12.2,-14.089 13.72,14.132 4.12,-19.363 11.62,18.543 9.45,-20.359 9.43,21.136 19.16,-19.808 20.81,20.648 8.7,-21.398 34.81,29.832 11.14,-19.09 15.11,25.406 11.92,-36.726 13.52,36.726 3.76,-36.726 19.4,21.16 14.55,-19.344 19.14,18.141 4.89,-18.141 11.32,18.371 15.44,-10.398 10.44,11.347 12.21,-14.089 13.72,14.132 4.12,-19.363 18.46,16.211 5.17,-12.969 13.8,16.078 19.15,-19.808 0.91,35.398 28.6,-36.148 20.25,18.711 14.06,-10.813 12.25,10.813 17.26,-15.481 12.84,18.379 13.6,-22.187 19.4,21.16 14.55,-19.344 19.14,18.141 4.88,-18.141 17.61,44.492 9.16,-36.519 10.44,11.347 12.21,-14.089 13.72,14.132 4.12,-19.363 13.52,17.883 8.91,-19.699 6.58,21.136 19.16,-19.808 20.81,20.648 8.7,-21.398 20.25,18.711 14.07,-10.813 12.24,10.813 17.26,-15.481 12.84,18.379 13.6,-22.187 19.4,21.16 14.56,-19.344 19.13,18.141 4.88,-18.141 11.33,18.371 15.44,-10.398 10.44,11.347 12.21,-14.089 13.72,14.132 4.12,-19.363 22.33,42.934 1.3,-39.692 13.79,16.078 19.16,-19.808 20.81,20.648 8.7,-21.398 20.25,18.711 14.06,-10.813 12.25,10.813 17.26,-15.481 11.85,18.379 0.99,0 13.6,-22.187 19.4,21.16 14.55,-19.344 19.15,18.141 4.88,-18.141 11.31,18.371 1.04,-0.699 0,53.969 -5000,0.082" /><path
         id="path204"
         style="fill:#bbef6d;fill-opacity:1;fill-rule:nonzero;stroke:none"
         d="m 5000,480.879 -370.92,0 c 0.8,4.012 4.04,20.082 5.58,23.562 l -18.02,-18.14 c 0,0 -0.5,32.469 -3.83,36.008 l -12.21,-34.25 c 0,0 -5.23,17.781 -9.65,21.761 l -1.57,-22.898 c 0,0 -9.89,6.238 -27.28,5.277 l 8.65,-11.32 -469.55,0 c 3.04,6.82 8.85,20.43 11.98,31.391 l -30.5,-27.879 c 0,0 -5.27,10.019 -6.97,21.82 0,0 -5.69,-14.441 -7.68,-25.332 l -623.48,0 c 1.92,2.992 8.3,13.051 9.8,16.43 l -22.65,-11.008 c 0,0 -3.15,12.808 -6.48,16.347 l -9.56,-14.589 c 0,0 -5.22,17.781 -9.65,21.761 l -1.56,-22.898 c 0,0 -6.91,9.906 -19.05,19.289 l 3.17,-25.332 -398.76,0 c 1.23,2.859 5.33,12.191 8.35,15.961 0,0 -22.17,-5.32 -24.41,-9.789 l -15.78,15.66 c 0,0 3.77,-12.133 5.37,-21.832 l -298.22,0.082 c 0.8,4.008 4.04,20.078 5.59,23.559 l -18.03,-18.141 c 0,0 -8.93,12.383 -12.27,15.922 l -3.77,-14.16 c 0,0 -22.13,12.398 -26.55,16.379 l 4.43,-16.379 c 0,0 -13.28,2.968 -16.37,4.14 l 8.65,-11.32 -287.97,0 c 1.68,4.5 9.44,24.988 12.62,28.961 0,0 -23.61,-22.602 -25.84,-27.07 l -10.79,23.437 c 0,0 2.64,-13.449 -1.91,-25.328 l -498.36,0 c 0.8,4.008 4.04,20.078 5.59,23.559 l -18.03,-18.141 c 0,0 -0.49,32.473 -3.82,36.012 l -12.22,-34.25 c 0,0 -5.23,17.781 -9.65,21.757 L 1754.86,487 c 0,0 -9.89,6.25 -27.28,5.281 l 8.65,-11.32 -469.55,0 c 3.03,6.82 8.84,20.43 11.97,31.391 l -30.49,-27.883 c 0,0 -5.28,10.019 -6.98,21.82 0,0 -5.69,-14.43 -7.68,-25.328 l -623.469,0 c 1.91,2.988 8.293,13.059 9.797,16.437 L 597.18,486.379 c 0,0 -3.153,12.812 -6.485,16.351 l -9.554,-14.589 c 0,0 -5.223,17.781 -9.653,21.757 L 569.93,487 c 0,0 -6.91,9.91 -19.051,19.289 l 3.168,-25.328 -398.766,0 c 1.231,2.859 5.336,12.187 8.352,15.961 0,0 -22.172,-5.32 -24.403,-9.793 l -15.789,15.672 c 0,0 3.778,-12.141 5.379,-21.84 l -128.82,0 0,-10.461 62.6133,0 3.789,-9.809 9.6836,9.809 7.1719,-16.379 9.2422,16.379 123.418,0 5.078,-18.82 8.477,18.82 149.746,0 5.808,-14.441 10.653,14.441 0,-17.352 18.402,17.352 9.688,-21.27 7.769,21.27 58.941,0 2.903,-13.551 12.183,9.141 6.481,-11.969 13.758,16.379 171.25,0 4.664,-21.27 10.101,21.27 231.75,0 0,-16.988 20.981,16.988 90.149,0 0,-9.809 6.98,7.079 5.39,-18.54 8.54,21.27 82.5,0 4.84,-17.852 10.36,17.852 4.4,-21.27 7.23,21.27 29.99,0 0,-13.41 10.63,13.41 180.27,0 6.97,-27.18 10.26,27.18 7.33,-19.309 c 0,0 4.54,12.008 7.3,19.309 l 140.37,0 4.03,-9.82 14.65,9.82 69.55,0 5.76,-23.059 13.56,21.258 4.84,-16.379 15.49,16.379 9.69,-21.258 8.53,23.059 162.88,0 1.57,-18.301 7.52,18.301 132.28,0 6.14,-18.301 15.34,18.301 8.92,-18.301 7.38,18.301 0.07,0 9.02,-12.289 6.6,12.289 147.97,0 0,-18.301 9.17,18.301 107.01,0 7.86,-7.91 3.71,7.91 168.03,0 3.58,-6.18 9.44,6.18 4.33,-18.301 15.93,18.301 12.7,-21.051 15.01,21.051 114.45,0 20.38,-18.301 5.3,18.301 170.39,-0.078 3.79,-9.813 9.68,9.813 7.17,-16.383 9.25,16.383 123.41,0 5.08,-18.832 8.47,18.832 149.75,0 5.81,-14.442 10.65,14.442 0,-17.352 18.41,17.352 9.68,-21.274 7.77,21.274 58.95,0 2.9,-13.551 12.18,9.141 6.48,-11.973 13.76,16.383 171.25,0 4.66,-21.274 10.11,21.274 231.74,0 0,-16.992 20.99,16.992 90.14,0 0,-9.813 6.99,7.082 5.39,-18.543 8.53,21.274 82.51,0 4.84,-17.852 10.36,17.852 4.39,-21.274 7.24,21.274 29.98,0 0,-13.41 10.64,13.41 180.26,0 6.97,-27.184 10.27,27.184 7.32,-19.313 c 0,0 4.55,12.012 7.3,19.313 l 140.37,0 4.04,-9.82 14.64,9.82 69.56,0 5.75,-23.063 13.56,21.262 4.84,-16.383 15.49,16.383 9.69,-21.262 8.54,23.063 162.87,0 1.58,-18.301 7.52,18.301 132.27,0 6.14,-18.301 15.35,18.301 8.91,-18.301 7.39,18.301 0.06,0 9.02,-12.301 6.6,12.301 83.6,0 0,10.457" /><path
         id="path206"
         style="fill:#54701f;fill-opacity:1;fill-rule:nonzero;stroke:none"
         d="m 2798.77,413.641 -16.57,29.679 3.35,14.891 13.22,-44.57" /><path
         id="path208"
         style="fill:#54701f;fill-opacity:1;fill-rule:nonzero;stroke:none"
         d="m 2749.36,408.422 -10.48,12.828 5.6,5.301 4.88,-18.129" /><path
         id="path210"
         style="fill:#54701f;fill-opacity:1;fill-rule:nonzero;stroke:none"
         d="m 2664.95,410.398 -24.54,16.153 7.28,16.769 17.26,-32.922" /><path
         id="path212"
         style="fill:#54701f;fill-opacity:1;fill-rule:nonzero;stroke:none"
         d="m 2571.61,407.922 -25.4,12.527 6.24,7.281 19.16,-19.808" /><path
         id="path214"
         style="fill:#54701f;fill-opacity:1;fill-rule:nonzero;stroke:none"
         d="m 2497.19,413.641 -17.11,8.75 4.91,5.339 12.2,-14.089" /><path
         id="path216"
         style="fill:#54701f;fill-opacity:1;fill-rule:nonzero;stroke:none"
         d="m 2389.81,406.59 -19.81,14.101 6.21,8.09 13.6,-22.191" /><path
         id="path218"
         style="fill:#54701f;fill-opacity:1;fill-rule:nonzero;stroke:none"
         d="m 2270.04,407.922 -21.88,19.808 4.94,15.59 16.94,-35.398" /><path
         id="path220"
         style="fill:#54701f;fill-opacity:1;fill-rule:nonzero;stroke:none"
         d="m 2202.53,413.641 -9.72,18.328 8.79,10.601 0.93,-28.929" /><path
         id="path222"
         style="fill:#54701f;fill-opacity:1;fill-rule:nonzero;stroke:none"
         d="m 2153.12,408.422 -9.41,13.84 4.53,4.289 4.88,-18.129" /><path
         id="path224"
         style="fill:#54701f;fill-opacity:1;fill-rule:nonzero;stroke:none"
         d="m 2129.1,408.422 -23.78,9.258 9.23,10.07 14.55,-19.328" /><path
         id="path226"
         style="fill:#54701f;fill-opacity:1;fill-rule:nonzero;stroke:none"
         d="m 2004.89,407.172 -14.75,15.398 6.05,6 8.7,-21.398" /><path
         id="path228"
         style="fill:#54701f;fill-opacity:1;fill-rule:nonzero;stroke:none"
         d="m 1942.43,411.648 -8.8,25.293 7.5,14.399 1.3,-39.692" /><path
         id="path230"
         style="fill:#54701f;fill-opacity:1;fill-rule:nonzero;stroke:none"
         d="m 1878.31,416.379 -21.05,1.301 5.61,9.101 15.44,-10.402" /><path
         id="path232"
         style="fill:#54701f;fill-opacity:1;fill-rule:nonzero;stroke:none"
         d="m 1793.57,406.59 -17.96,15.961 4.36,6.23 13.6,-22.191" /><path
         id="path234"
         style="fill:#54701f;fill-opacity:1;fill-rule:nonzero;stroke:none"
         d="m 1703.31,407.172 -15.75,14.41 7.05,6.988 8.7,-21.398" /><path
         id="path236"
         style="fill:#54701f;fill-opacity:1;fill-rule:nonzero;stroke:none"
         d="m 1585.13,416.379 -14.18,23.832 5.03,12.687 9.15,-36.519" /><path
         id="path238"
         style="fill:#54701f;fill-opacity:1;fill-rule:nonzero;stroke:none"
         d="m 1500.39,406.59 -19.19,14.18 5.59,8.011 13.6,-22.191" /><path
         id="path240"
         style="fill:#54701f;fill-opacity:1;fill-rule:nonzero;stroke:none"
         d="m 1410.14,407.172 -29.11,16.098 0.51,20.05 28.6,-36.148" /><path
         id="path242"
         style="fill:#54701f;fill-opacity:1;fill-rule:nonzero;stroke:none"
         d="m 1181.54,406.59 -18.59,25.531 6.66,11.199 11.93,-36.73" /><path
         id="path244"
         style="fill:#54701f;fill-opacity:1;fill-rule:nonzero;stroke:none"
         d="m 1256.8,408.422 -12.06,11.34 7.17,6.789 4.89,-18.129" /><path
         id="path246"
         style="fill:#54701f;fill-opacity:1;fill-rule:nonzero;stroke:none"
         d="m 1324.05,408.422 -11,12.269 6.88,7.079 4.12,-19.348" /><path
         id="path248"
         style="fill:#54701f;fill-opacity:1;fill-rule:nonzero;stroke:none"
         d="m 1108.56,407.172 -12.35,17.789 3.65,3.609 8.7,-21.398" /><path
         id="path250"
         style="fill:#54701f;fill-opacity:1;fill-rule:nonzero;stroke:none"
         d="m 1029.39,408.422 -8.99,14.34 4.86,5.008 4.13,-19.348" /><path
         id="path252"
         style="fill:#54701f;fill-opacity:1;fill-rule:nonzero;stroke:none"
         d="m 988.895,416.379 -20.797,1.711 5.355,8.691 15.442,-10.402" /><path
         id="path254"
         style="fill:#54701f;fill-opacity:1;fill-rule:nonzero;stroke:none"
         d="m 962.133,408.422 -10.121,13.16 5.246,4.969 4.875,-18.129" /><path
         id="path256"
         style="fill:#54701f;fill-opacity:1;fill-rule:nonzero;stroke:none"
         d="m 904.16,406.59 -19.23,14.992 5.558,9.047 13.672,-24.039" /><path
         id="path258"
         style="fill:#54701f;fill-opacity:1;fill-rule:nonzero;stroke:none"
         d="m 848.211,415.07 -0.273,1.239 -6.395,29.031 8.355,11.551 -1.687,-41.821" /><path
         id="path260"
         style="fill:#54701f;fill-opacity:1;fill-rule:nonzero;stroke:none"
         d="m 660.551,408.422 -19.723,22.207 3.301,17.09 16.422,-39.297" /><path
         id="path262"
         style="fill:#54701f;fill-opacity:1;fill-rule:nonzero;stroke:none"
         d="m 727.809,408.422 -10.137,13.16 6.008,6.188 4.129,-19.348" /><path
         id="path264"
         style="fill:#54701f;fill-opacity:1;fill-rule:nonzero;stroke:none"
         d="m 784.383,407.922 -26.977,10.687 7.824,9.121 19.153,-19.808" /><path
         id="path266"
         style="fill:#54701f;fill-opacity:1;fill-rule:nonzero;stroke:none"
         d="m 602.582,406.59 -19.234,14.992 5.668,9.047 13.566,-24.039" /><path
         id="path268"
         style="fill:#54701f;fill-opacity:1;fill-rule:nonzero;stroke:none"
         d="m 482.805,407.922 -15.274,24.297 3.426,19.582 11.848,-43.879" /><path
         id="path270"
         style="fill:#54701f;fill-opacity:1;fill-rule:nonzero;stroke:none"
         d="m 345.895,408.422 -20.93,31.918 4.422,11.449 16.508,-43.367" /><path
         id="path272"
         style="fill:#54701f;fill-opacity:1;fill-rule:nonzero;stroke:none"
         d="m 255.992,415.07 -20.871,24.969 5.641,13.789 15.23,-38.758" /><path
         id="path274"
         style="fill:#54701f;fill-opacity:1;fill-rule:nonzero;stroke:none"
         d="m 192.164,407.922 -13.84,26.527 7.426,8.871 6.414,-35.398" /><path
         id="path276"
         style="fill:#54701f;fill-opacity:1;fill-rule:nonzero;stroke:none"
         d="M 44.3164,408.422 26.5391,443.32 32.957,457.898 44.3164,408.422" /><path
         id="path278"
         style="fill:#54701f;fill-opacity:1;fill-rule:nonzero;stroke:none"
         d="m 117.75,413.641 -18.2148,7.558 6.0038,6.531 12.211,-14.089" /><path
         id="path280"
         style="fill:#54701f;fill-opacity:1;fill-rule:nonzero;stroke:none"
         d="m 159.227,411.648 -10.809,8.024 5.633,4.949 5.176,-12.973" /><path
         id="path282"
         style="fill:#828210;fill-opacity:1;fill-rule:nonzero;stroke:none"
         d="m 4987.65,408.328 -9.41,13.852 4.53,4.289 4.88,-18.141" /><path
         id="path284"
         style="fill:#828210;fill-opacity:1;fill-rule:nonzero;stroke:none"
         d="m 4963.62,408.328 -23.77,9.274 9.22,10.07 14.55,-19.344" /><path
         id="path286"
         style="fill:#828210;fill-opacity:1;fill-rule:nonzero;stroke:none"
         d="m 4839.41,407.09 -14.74,15.398 6.04,6 8.7,-21.398" /><path
         id="path288"
         style="fill:#828210;fill-opacity:1;fill-rule:nonzero;stroke:none"
         d="m 4776.95,411.57 -8.79,25.289 7.49,14.403 1.3,-39.692" /><path
         id="path290"
         style="fill:#828210;fill-opacity:1;fill-rule:nonzero;stroke:none"
         d="m 4712.83,416.301 -21.05,1.301 5.61,9.097 15.44,-10.398" /><path
         id="path292"
         style="fill:#828210;fill-opacity:1;fill-rule:nonzero;stroke:none"
         d="m 4628.09,406.512 -17.96,15.949 4.36,6.238 13.6,-22.187" /><path
         id="path294"
         style="fill:#828210;fill-opacity:1;fill-rule:nonzero;stroke:none"
         d="m 4537.83,407.09 -15.74,14.41 7.04,6.988 8.7,-21.398" /><path
         id="path296"
         style="fill:#828210;fill-opacity:1;fill-rule:nonzero;stroke:none"
         d="m 4419.66,416.301 -14.18,23.828 5.02,12.691 9.16,-36.519" /><path
         id="path298"
         style="fill:#828210;fill-opacity:1;fill-rule:nonzero;stroke:none"
         d="m 4334.92,406.512 -19.2,14.179 5.6,8.008 13.6,-22.187" /><path
         id="path300"
         style="fill:#828210;fill-opacity:1;fill-rule:nonzero;stroke:none"
         d="m 4244.66,407.09 -29.11,16.101 0.51,20.047 28.6,-36.148" /><path
         id="path302"
         style="fill:#828210;fill-opacity:1;fill-rule:nonzero;stroke:none"
         d="m 4016.06,406.512 -18.58,25.527 6.66,11.199 11.92,-36.726" /><path
         id="path304"
         style="fill:#828210;fill-opacity:1;fill-rule:nonzero;stroke:none"
         d="m 4091.32,408.328 -12.05,11.352 7.16,6.789 4.89,-18.141" /><path
         id="path306"
         style="fill:#828210;fill-opacity:1;fill-rule:nonzero;stroke:none"
         d="m 4158.58,408.328 -11.01,12.281 6.88,7.082 4.13,-19.363" /><path
         id="path308"
         style="fill:#828210;fill-opacity:1;fill-rule:nonzero;stroke:none"
         d="m 3943.08,407.09 -12.35,17.781 3.65,3.617 8.7,-21.398" /><path
         id="path310"
         style="fill:#828210;fill-opacity:1;fill-rule:nonzero;stroke:none"
         d="m 3863.91,408.328 -8.99,14.352 4.87,5.011 4.12,-19.363" /><path
         id="path312"
         style="fill:#828210;fill-opacity:1;fill-rule:nonzero;stroke:none"
         d="m 3823.42,416.301 -20.8,1.711 5.36,8.687 15.44,-10.398" /><path
         id="path314"
         style="fill:#828210;fill-opacity:1;fill-rule:nonzero;stroke:none"
         d="m 3796.65,408.328 -10.12,13.172 5.25,4.969 4.87,-18.141" /><path
         id="path316"
         style="fill:#828210;fill-opacity:1;fill-rule:nonzero;stroke:none"
         d="m 3738.68,406.512 -19.23,14.988 5.56,9.051 13.67,-24.039" /><path
         id="path318"
         style="fill:#828210;fill-opacity:1;fill-rule:nonzero;stroke:none"
         d="m 3682.73,414.988 -0.27,1.242 -6.4,29.032 8.36,11.547 -1.69,-41.821" /><path
         id="path320"
         style="fill:#828210;fill-opacity:1;fill-rule:nonzero;stroke:none"
         d="m 3495.08,408.328 -19.73,22.223 3.3,17.09 16.43,-39.313" /><path
         id="path322"
         style="fill:#828210;fill-opacity:1;fill-rule:nonzero;stroke:none"
         d="m 3562.33,408.328 -10.14,13.172 6.01,6.191 4.13,-19.363" /><path
         id="path324"
         style="fill:#828210;fill-opacity:1;fill-rule:nonzero;stroke:none"
         d="m 3618.91,407.84 -26.98,10.691 7.82,9.117 19.16,-19.808" /><path
         id="path326"
         style="fill:#828210;fill-opacity:1;fill-rule:nonzero;stroke:none"
         d="m 3437.1,406.512 -19.23,14.988 5.67,9.051 13.56,-24.039" /><path
         id="path328"
         style="fill:#828210;fill-opacity:1;fill-rule:nonzero;stroke:none"
         d="m 3317.33,407.84 -15.27,24.301 3.42,19.578 11.85,-43.879" /><path
         id="path330"
         style="fill:#828210;fill-opacity:1;fill-rule:nonzero;stroke:none"
         d="m 3180.42,408.328 -20.93,31.934 4.42,11.449 16.51,-43.383" /><path
         id="path332"
         style="fill:#828210;fill-opacity:1;fill-rule:nonzero;stroke:none"
         d="m 3090.52,414.988 -20.88,24.973 5.64,13.789 15.24,-38.762" /><path
         id="path334"
         style="fill:#828210;fill-opacity:1;fill-rule:nonzero;stroke:none"
         d="m 3026.69,407.84 -13.84,26.531 7.42,8.867 6.42,-35.398" /><path
         id="path336"
         style="fill:#828210;fill-opacity:1;fill-rule:nonzero;stroke:none"
         d="m 2878.84,408.328 -17.78,34.91 6.42,14.582 11.36,-49.492" /><path
         id="path338"
         style="fill:#828210;fill-opacity:1;fill-rule:nonzero;stroke:none"
         d="m 2952.27,413.559 -18.21,7.562 6,6.527 12.21,-14.089" /><path
         id="path340"
         style="fill:#828210;fill-opacity:1;fill-rule:nonzero;stroke:none"
         d="m 2993.75,411.57 -10.81,8.02 5.64,4.949 5.17,-12.969" /></g></g></svg>